<svg width="24" height="25" viewBox="0 0 24 25" fill="none" xmlns="http://www.w3.org/2000/svg">
<path d="M5.62465 14.9C5.62465 13.58 4.78095 12.5 3.74977 12.5C2.71858 12.5 1.87488 13.58 1.87488 14.9C1.87488 16.22 2.71858 17.3 3.74977 17.3C4.78095 17.3 5.62465 16.22 5.62465 14.9ZM6.04612 10.1H17.9516L16.9084 4.74512C16.8732 4.58 16.6392 4.34 16.4982 4.34H7.49878C7.35854 4.34 7.1238 4.58 7.08856 4.74512L6.04612 10.1ZM22.1236 14.9C22.1236 13.58 21.2799 12.5 20.2487 12.5C19.2176 12.5 18.3739 13.58 18.3739 14.9C18.3739 16.22 19.2176 17.3 20.2487 17.3C21.2799 17.3 22.1236 16.22 22.1236 14.9ZM23.9985 13.46V19.22C23.9985 19.4898 23.8343 19.7 23.6235 19.7H22.4986V21.62C22.4986 23.2098 21.4907 24.5 20.2487 24.5C19.0068 24.5 17.9989 23.2098 17.9989 21.62V19.7H5.99963V21.62C5.99963 23.2098 4.99169 24.5 3.74977 24.5C2.50784 24.5 1.49991 23.2098 1.49991 21.62V19.7H0.374977C0.16424 19.7 0 19.4898 0 19.22V13.46C0 11.6005 1.17218 10.1 2.62484 10.1H2.95332L4.18399 3.81488C4.54697 1.92464 5.97713 0.5 7.50028 0.5H16.4997C18.0229 0.5 19.453 1.92464 19.816 3.81488L21.0467 10.1H21.3752C22.8278 10.1 24 11.6005 24 13.46H23.9985Z" fill="#023E8A"/>
</svg>
