<svg width="24" height="25" viewBox="0 0 24 25" fill="none" xmlns="http://www.w3.org/2000/svg">
<path d="M23.9279 22.7749L16.1369 14.9839C17.3459 13.4209 17.9999 11.51 17.9999 9.49996C17.9999 7.09397 17.0609 4.83798 15.3629 3.13699C13.6649 1.436 11.403 0.5 8.99996 0.5C6.59697 0.5 4.33498 1.439 2.63699 3.13699C0.935996 4.83498 0 7.09397 0 9.49996C0 11.903 0.938996 14.1649 2.63699 15.8629C4.33498 17.5639 6.59397 18.4999 8.99996 18.4999C11.01 18.4999 12.9179 17.8459 14.4809 16.6399L22.2719 24.4279C22.2947 24.4508 22.3219 24.4689 22.3517 24.4813C22.3816 24.4936 22.4136 24.5 22.4459 24.5C22.4782 24.5 22.5102 24.4936 22.5401 24.4813C22.5699 24.4689 22.5971 24.4508 22.6199 24.4279L23.9279 23.1229C23.9508 23.1001 23.9689 23.0729 23.9813 23.0431C23.9936 23.0132 24 22.9812 24 22.9489C24 22.9166 23.9936 22.8846 23.9813 22.8547C23.9689 22.8249 23.9508 22.7977 23.9279 22.7749ZM13.7519 14.2519C12.4799 15.5209 10.794 16.2199 8.99996 16.2199C7.20597 16.2199 5.51998 15.5209 4.24798 14.2519C2.97899 12.9799 2.27999 11.294 2.27999 9.49996C2.27999 7.70597 2.97899 6.01698 4.24798 4.74798C5.51998 3.47899 7.20597 2.77999 8.99996 2.77999C10.794 2.77999 12.4829 3.47599 13.7519 4.74798C15.0209 6.01998 15.7199 7.70597 15.7199 9.49996C15.7199 11.294 15.0209 12.9829 13.7519 14.2519Z" fill="#023E8A"/>
</svg>
